<svg width="20" height="19" viewBox="0 0 20 19" fill="none" xmlns="http://www.w3.org/2000/svg">
<path fill-rule="evenodd" clip-rule="evenodd" d="M0.306763 9.57266C0.306763 4.61685 4.64146 0.599365 9.98858 0.599365C15.3331 0.605134 19.6642 4.61924 19.6704 9.57266C19.6704 14.5285 15.3357 18.546 9.98858 18.546C4.64146 18.546 0.306763 14.5285 0.306763 9.57266ZM10.0547 13.6772L15.5774 6.73112C15.7641 6.51694 15.8087 6.225 15.6935 5.97121C15.5783 5.71741 15.3219 5.54282 15.0262 5.51676C14.7305 5.49069 14.4432 5.61737 14.2784 5.8465L9.25438 12.1659L5.96579 9.72745C5.61778 9.46933 5.10989 9.52156 4.8314 9.8441C4.5529 10.1666 4.60925 10.6374 4.95726 10.8955L8.90099 13.8178C9.07339 13.9427 9.29271 13.9981 9.50967 13.9717C9.72663 13.9453 9.92303 13.8392 10.0547 13.6772Z" fill="#335B74"/>
</svg>
